# xmcd
#
# Track frame offsets:
# 150
# 17256
# 34726
# 51695
# 79983
# 94613
# 109597
# 133936
# 173775
# 188510
#
# Disc length: 2820 seconds
#
# Revision: 0
# Processed by: cddbd v1.4PL0 Copyright (c) Steve Scherf et al.
# Submitted via: Audion 3.0.2 (http://www.panic.com/audion/)
#
DISCID=7b0b020a
DTITLE=Chuck Might and the Bluescasters - Stickin' by You
DYEAR=1900
DGENRE=
TTITLE0=Whiskey Talkin'
TTITLE1=Draw the Line
TTITLE2=Stickin' by You
TTITLE3=Dark Side of Love
TTITLE4=Can't Keep From Rockin'
TTITLE5=Talkin' Dirty
TTITLE6=My Baby Rides Her Own
TTITLE7=Motherless Son
TTITLE8=Swing That Thing
TTITLE9=Back Door
EXTD=
EXTT0=
EXTT1=
EXTT2=
EXTT3=
EXTT4=
EXTT5=
EXTT6=
EXTT7=
EXTT8=
EXTT9=
PLAYORDER=
